<?xml version="1.0" encoding="UTF-8" standalone="no"?>
<!-- Created with Inkscape (http://www.inkscape.org/) -->

<svg
   xmlns:osb="http://www.openswatchbook.org/uri/2009/osb"
   xmlns:dc="http://purl.org/dc/elements/1.1/"
   xmlns:cc="http://creativecommons.org/ns#"
   xmlns:rdf="http://www.w3.org/1999/02/22-rdf-syntax-ns#"
   xmlns:svg="http://www.w3.org/2000/svg"
   xmlns="http://www.w3.org/2000/svg"
   xmlns:sodipodi="http://sodipodi.sourceforge.net/DTD/sodipodi-0.dtd"
   xmlns:inkscape="http://www.inkscape.org/namespaces/inkscape"
   width="350"
   height="350"
   id="svg4039"
   version="1.1"
   inkscape:version="0.48.4 r9939"
   sodipodi:docname="cgran-header.svg"
   inkscape:export-filename="/home/ravi/sandbox/cgran-frontend/proto-pybombs/static/images/assets/septa_small.png"
   inkscape:export-xdpi="90"
   inkscape:export-ydpi="90">
  <defs
     id="defs4041">
    <linearGradient
       id="linearGradient5680"
       osb:paint="solid">
      <stop
         style="stop-color:#000000;stop-opacity:1;"
         offset="0"
         id="stop5682" />
    </linearGradient>
  </defs>
  <sodipodi:namedview
     id="base"
     pagecolor="#ffffff"
     bordercolor="#666666"
     borderopacity="1.0"
     inkscape:pageopacity="0.0"
     inkscape:pageshadow="2"
     inkscape:zoom="1"
     inkscape:cx="161.71245"
     inkscape:cy="246.39814"
     inkscape:document-units="px"
     inkscape:current-layer="layer1"
     showgrid="false"
     inkscape:window-width="1920"
     inkscape:window-height="1006"
     inkscape:window-x="0"
     inkscape:window-y="34"
     inkscape:window-maximized="1" />
  <metadata
     id="metadata4044">
    <rdf:RDF>
      <cc:Work
         rdf:about="">
        <dc:format>image/svg+xml</dc:format>
        <dc:type
           rdf:resource="http://purl.org/dc/dcmitype/StillImage" />
        <dc:title></dc:title>
      </cc:Work>
    </rdf:RDF>
  </metadata>
  <g
     inkscape:label="Layer 1"
     inkscape:groupmode="layer"
     id="layer1"
     transform="translate(0,-702.36218)">
    <path
       sodipodi:type="star"
       style="fill:#00222b;fill-opacity:1;stroke:#000000;stroke-width:0;stroke-linecap:round;stroke-linejoin:round;stroke-miterlimit:4;stroke-opacity:1;stroke-dasharray:none;stroke-dashoffset:0"
       id="path5642"
       sodipodi:sides="7"
       sodipodi:cx="271"
       sodipodi:cy="280.36218"
       sodipodi:r1="200.38213"
       sodipodi:r2="180.53807"
       sodipodi:arg1="0.36753213"
       sodipodi:arg2="0.81633108"
       inkscape:flatsided="true"
       inkscape:rounded="0"
       inkscape:randomized="0"
       d="M 457.99999,352.36218 331.30072,471.45593 159.19378,446.65219 71.279202,296.62868 133.75846,134.35617 299.58339,82.029165 443.88445,179.05097 z"
       inkscape:transform-center-x="-0.27286352"
       inkscape:transform-center-y="-6.1161275"
       transform="matrix(0.61704135,-0.09381663,0.09510963,0.6254026,-14.712932,726.4411)" />
    <path
       sodipodi:type="arc"
       style="opacity:0.28956227;fill:#ccaaff;fill-opacity:1;stroke:#000000;stroke-width:0;stroke-linecap:round;stroke-linejoin:round;stroke-miterlimit:4;stroke-opacity:1;stroke-dasharray:none;stroke-dashoffset:0"
       id="path5644"
       sodipodi:cx="327.5"
       sodipodi:cy="729.86218"
       sodipodi:rx="257.5"
       sodipodi:ry="247.5"
       d="m 585,729.86218 a 257.5,247.5 0 1 1 -515,0 257.5,247.5 0 1 1 515,0 z"
       transform="matrix(0.67961173,0,0,0.70698992,-46.560821,361.43954)" />
    <path
       style="fill:none;stroke:#ffffff;stroke-width:0.69996017;stroke-linecap:butt;stroke-linejoin:miter;stroke-miterlimit:4;stroke-opacity:1;stroke-dasharray:5.59968056, 5.59968056;stroke-dashoffset:0;display:inline"
       d="M 80.112009,796.95402 232.71201,988.03218"
       id="path5658"
       inkscape:connector-type="polyline"
       inkscape:connector-curvature="0" />
    <path
       style="fill:none;stroke:#ffffff;stroke-width:0.69996017;stroke-linecap:butt;stroke-linejoin:miter;stroke-miterlimit:4;stroke-opacity:1;stroke-dasharray:5.59968056, 5.59968056;stroke-dashoffset:0;display:inline"
       d="m 176.712,748.65953 -49.7,241.47242"
       id="path5660"
       inkscape:connector-type="polyline"
       inkscape:connector-curvature="0" />
    <path
       style="fill:none;stroke:#ffffff;stroke-width:0.69996017;stroke-linecap:butt;stroke-linejoin:miter;stroke-miterlimit:4;stroke-opacity:1;stroke-dasharray:5.59968056, 5.59968056;stroke-dashoffset:0;display:inline"
       d="M 274.01202,795.55416 127.012,989.43203"
       id="path5662"
       inkscape:connector-type="polyline"
       inkscape:connector-curvature="0" />
    <path
       style="fill:none;stroke:#ffffff;stroke-width:0.69996017;stroke-linecap:butt;stroke-linejoin:miter;stroke-miterlimit:4;stroke-opacity:1;stroke-dasharray:5.59968056, 5.59968056;stroke-dashoffset:0;display:inline"
       d="m 272.61202,795.55416 -38.5,192.47802"
       id="path5664"
       inkscape:connector-type="polyline"
       inkscape:connector-curvature="0" />
    <path
       style="fill:none;stroke:#ffffff;stroke-width:0.69996017;stroke-linecap:butt;stroke-linejoin:miter;stroke-miterlimit:4;stroke-opacity:1;stroke-dasharray:5.59968056, 5.59968056;stroke-dashoffset:0;display:inline"
       d="M 299.91203,901.94202 56.312002,902.64194"
       id="path5666"
       inkscape:connector-type="polyline"
       inkscape:connector-curvature="0" />
    <path
       style="fill:none;stroke:#000000;stroke-width:0.69996017px;stroke-linecap:butt;stroke-linejoin:miter;stroke-opacity:1"
       d="m 176.01202,877.44475 0,0"
       id="path5668"
       inkscape:connector-type="polyline"
       inkscape:connector-curvature="0"
       inkscape:connection-start="#path5644"
       inkscape:connection-start-point="d4"
       inkscape:connection-end="#path5644"
       inkscape:connection-end-point="d4" />
    <path
       style="fill:none;stroke:#ffffff;stroke-width:0.69996017;stroke-linecap:butt;stroke-linejoin:miter;stroke-miterlimit:4;stroke-opacity:1;stroke-dasharray:5.59968056, 5.59968056;stroke-dashoffset:0;display:inline"
       d="M 298.51201,901.94202 78.711982,796.25408"
       id="path5670"
       inkscape:connector-type="polyline"
       inkscape:connector-curvature="0" />
    <path
       style="fill:#d5f6ff;stroke:#ffffff;stroke-width:0.69996017;stroke-linecap:butt;stroke-linejoin:miter;stroke-miterlimit:4;stroke-opacity:1;stroke-dasharray:5.59968056, 5.59968056;stroke-dashoffset:0;display:inline"
       d="m 233.41201,988.7321 -56,-240.07257"
       id="path5672"
       inkscape:connector-type="polyline"
       inkscape:connector-curvature="0" />
    <path
       style="fill:none;stroke:#ffffff;stroke-width:0.69996017;stroke-linecap:butt;stroke-linejoin:miter;stroke-miterlimit:4;stroke-opacity:1;stroke-dasharray:5.59968056, 5.59968056;stroke-dashoffset:0;display:inline"
       d="M 232.71201,988.03218 54.212008,901.2421"
       id="path5676"
       inkscape:connector-type="polyline"
       inkscape:connector-curvature="0" />
    <path
       style="fill:none;stroke:#ffffff;stroke-width:0.69996017;stroke-linecap:butt;stroke-linejoin:miter;stroke-miterlimit:4;stroke-opacity:1;stroke-dasharray:5.59968056, 5.59968056;stroke-dashoffset:0"
       d="M 271.91202,795.55416 82.212009,796.95402"
       id="path5678"
       inkscape:connector-type="polyline"
       inkscape:connector-curvature="0" />
    <path
       style="fill:none;stroke:#ffffff;stroke-width:0.69996017;stroke-linecap:butt;stroke-linejoin:miter;stroke-miterlimit:4;stroke-opacity:1;stroke-dasharray:5.59968056, 5.59968056;stroke-dashoffset:0"
       d="M 275.91494,797.15107 58.959089,899.99516"
       id="path5686"
       inkscape:connector-type="polyline"
       inkscape:connector-curvature="0" />
    <path
       style="fill:none;stroke:#ffffff;stroke-width:0.69996017;stroke-linecap:butt;stroke-linejoin:miter;stroke-miterlimit:4;stroke-opacity:1;stroke-dasharray:5.59968056, 5.59968056;stroke-dashoffset:0"
       d="M 57.234021,905.72012 175.08999,749.78085"
       id="path5702"
       inkscape:connector-type="polyline"
       inkscape:connector-curvature="0" />
    <path
       inkscape:connector-curvature="0"
       inkscape:connector-type="polyline"
       id="path5704"
       d="M 295.61683,899.78694 173.30718,747.315"
       style="fill:none;stroke:#ffffff;stroke-width:0.69996017;stroke-linecap:butt;stroke-linejoin:miter;stroke-miterlimit:4;stroke-opacity:1;stroke-dasharray:5.59968056, 5.59968056;stroke-dashoffset:0" />
    <path
       inkscape:connector-curvature="0"
       inkscape:connector-type="polyline"
       id="path5706"
       d="m 122.11201,992.93163 178.50001,-86.7901"
       style="fill:none;stroke:#ffffff;stroke-width:0.69996017;stroke-linecap:butt;stroke-linejoin:miter;stroke-miterlimit:4;stroke-opacity:1;stroke-dasharray:5.59968056, 5.59968056;stroke-dashoffset:0;display:inline" />
    <path
       sodipodi:type="arc"
       style="fill:#f6d5ff;fill-opacity:1;stroke:none"
       id="path5708"
       sodipodi:cx="722"
       sodipodi:cy="688.36218"
       sodipodi:rx="16"
       sodipodi:ry="18"
       d="m 738,688.36218 a 16,18 0 1 1 -32,0 16,18 0 1 1 32,0 z"
       transform="matrix(1.9136626,0,0,1.7015122,-1203.2459,-296.06796)" />
    <path
       transform="matrix(1.0937501,0,0,0.97211112,-493.12471,231.92666)"
       d="m 738,688.36218 a 16,18 0 1 1 -32,0 16,18 0 1 1 32,0 z"
       sodipodi:ry="18"
       sodipodi:rx="16"
       sodipodi:cy="688.36218"
       sodipodi:cx="722"
       id="path5710"
       style="fill:#ff5555;fill-opacity:1;stroke:none"
       sodipodi:type="arc" />
    <path
       sodipodi:type="arc"
       style="fill:#ff7f2a;fill-opacity:1;stroke:none"
       id="path5712"
       sodipodi:cx="722"
       sodipodi:cy="688.36218"
       sodipodi:rx="16"
       sodipodi:ry="18"
       d="m 738,688.36218 a 16,18 0 1 1 -32,0 16,18 0 1 1 32,0 z"
       transform="matrix(0.43750005,0,0,0.38884448,-134.81218,695.0184)" />
    <path
       transform="matrix(0.87500004,0,0,0.77768894,-401.6872,281.7692)"
       d="m 738,688.36218 a 16,18 0 1 1 -32,0 16,18 0 1 1 32,0 z"
       sodipodi:ry="18"
       sodipodi:rx="16"
       sodipodi:cy="688.36218"
       sodipodi:cx="722"
       id="path5714"
       style="fill:#80b3ff;fill-opacity:1;stroke:none"
       sodipodi:type="arc" />
    <path
       transform="matrix(0.43750005,0,0,0.38884448,-42.41216,529.13732)"
       d="m 738,688.36218 a 16,18 0 1 1 -32,0 16,18 0 1 1 32,0 z"
       sodipodi:ry="18"
       sodipodi:rx="16"
       sodipodi:cy="688.36218"
       sodipodi:cx="722"
       id="path5716"
       style="fill:#00aad4;fill-opacity:1;stroke:none"
       sodipodi:type="arc" />
    <path
       inkscape:connector-curvature="0"
       inkscape:connector-type="polyline"
       id="path5718"
       d="M 81.860766,796.7769 125.26324,988.20928"
       style="fill:none;stroke:#ffffff;stroke-width:0.69996017;stroke-linecap:butt;stroke-linejoin:miter;stroke-miterlimit:4;stroke-opacity:1;stroke-dasharray:5.59968056, 5.59968056;stroke-dashoffset:0;display:inline" />
    <path
       transform="matrix(0.43750005,0,0,0.38884448,-55.012167,588.63056)"
       d="m 738,688.36218 a 16,18 0 1 1 -32,0 16,18 0 1 1 32,0 z"
       sodipodi:ry="18"
       sodipodi:rx="16"
       sodipodi:cy="688.36218"
       sodipodi:cx="722"
       id="path5720"
       style="fill:#d7f4d7;fill-opacity:1;stroke:none"
       sodipodi:type="arc" />
    <path
       transform="matrix(0.87500004,0,0,0.77768894,-409.08434,406.74887)"
       d="m 738,688.36218 a 16,18 0 1 1 -32,0 16,18 0 1 1 32,0 z"
       sodipodi:ry="18"
       sodipodi:rx="16"
       sodipodi:cy="688.36218"
       sodipodi:cx="722"
       id="path5722"
       style="fill:#80ffb3;fill-opacity:1;stroke:none"
       sodipodi:type="arc" />
    <path
       sodipodi:type="arc"
       style="fill:#2ad4ff;fill-opacity:1;stroke:none"
       id="path5724"
       sodipodi:cx="722"
       sodipodi:cy="688.36218"
       sodipodi:rx="16"
       sodipodi:ry="18"
       d="m 738,688.36218 a 16,18 0 1 1 -32,0 16,18 0 1 1 32,0 z"
       transform="matrix(0.27338038,0,0,0.24307319,-30.251992,628.94937)" />
    <path
       sodipodi:type="arc"
       style="fill:#80b3ff;fill-opacity:1;stroke:none"
       id="path5736"
       sodipodi:cx="722"
       sodipodi:cy="688.36218"
       sodipodi:rx="16"
       sodipodi:ry="18"
       d="m 738,688.36218 a 16,18 0 1 1 -32,0 16,18 0 1 1 32,0 z"
       transform="matrix(0.87500004,0,0,-0.77768894,-569.74747,1435.3279)" />
    <path
       transform="matrix(-0.43750005,0,0,-0.38884448,397.75444,1066.6601)"
       d="m 738,688.36218 a 16,18 0 1 1 -32,0 16,18 0 1 1 32,0 z"
       sodipodi:ry="18"
       sodipodi:rx="16"
       sodipodi:cy="688.36218"
       sodipodi:cx="722"
       id="path5740"
       style="fill:#80ff80;fill-opacity:1;stroke:none"
       sodipodi:type="arc" />
    <path
       sodipodi:type="arc"
       style="fill:#c8c4b7;fill-opacity:1;stroke:none"
       id="path5742"
       sodipodi:cx="722"
       sodipodi:cy="688.36218"
       sodipodi:rx="16"
       sodipodi:ry="18"
       d="m 738,688.36218 a 16,18 0 1 1 -32,0 16,18 0 1 1 32,0 z"
       transform="matrix(-0.87500004,0,0,-0.77768894,807.54188,1285.5521)" />
    <path
       transform="matrix(0.27338038,0,0,0.24307319,-92.140868,736.21802)"
       d="m 738,688.36218 a 16,18 0 1 1 -32,0 16,18 0 1 1 32,0 z"
       sodipodi:ry="18"
       sodipodi:rx="16"
       sodipodi:cy="688.36218"
       sodipodi:cx="722"
       id="path5744"
       style="fill:#00ffcc;fill-opacity:1;stroke:none"
       sodipodi:type="arc" />
    <path
       sodipodi:type="arc"
       style="fill:#d7f4e3;fill-opacity:1;stroke:none"
       id="path5746"
       sodipodi:cx="722"
       sodipodi:cy="688.36218"
       sodipodi:rx="16"
       sodipodi:ry="18"
       d="m 738,688.36218 a 16,18 0 1 1 -32,0 16,18 0 1 1 32,0 z"
       transform="matrix(0.27338038,0,0,0.24307319,-18.51446,753.29562)" />
    <flowRoot
       xml:space="preserve"
       id="flowRoot5748"
       style="font-size:40px;font-style:normal;font-variant:normal;font-weight:normal;font-stretch:normal;line-height:125%;letter-spacing:0px;word-spacing:0px;fill:#0b2228;fill-opacity:1;stroke:none;font-family:Monospace;-inkscape-font-specification:Monospace"
       transform="matrix(0.70885299,0,0,0.73049119,177.46922,388.00959)"><flowRegion
         id="flowRegion5750"><rect
           id="rect5752"
           width="57.937637"
           height="109.16671"
           x="-21.345446"
           y="640.09015"
           style="font-style:normal;font-variant:normal;font-weight:normal;font-stretch:normal;fill:#0b2228;font-family:Monospace;-inkscape-font-specification:Monospace" /></flowRegion><flowPara
         id="flowPara5754">{</flowPara></flowRoot>    <flowRoot
       style="font-size:40px;font-style:normal;font-variant:normal;font-weight:normal;font-stretch:normal;line-height:125%;letter-spacing:0px;word-spacing:0px;fill:#0b2228;fill-opacity:1;stroke:none;font-family:Monospace;-inkscape-font-specification:Monospace"
       id="flowRoot5756"
       xml:space="preserve"
       transform="matrix(-0.70885299,0,0,0.73049119,179.35607,388.00959)"><flowRegion
         id="flowRegion5758"><rect
           style="font-style:normal;font-variant:normal;font-weight:normal;font-stretch:normal;fill:#0b2228;font-family:Monospace;-inkscape-font-specification:Monospace"
           y="640.09015"
           x="-21.345446"
           height="109.16671"
           width="57.937637"
           id="rect5760" /></flowRegion><flowPara
         id="flowPara5762">{</flowPara></flowRoot>    <path
       sodipodi:type="arc"
       style="fill:#ff55dd;fill-opacity:1;stroke:none"
       id="path5764"
       sodipodi:cx="722"
       sodipodi:cy="688.36218"
       sodipodi:rx="16"
       sodipodi:ry="18"
       d="m 738,688.36218 a 16,18 0 1 1 -32,0 16,18 0 1 1 32,0 z"
       transform="matrix(1.0937501,0,0,0.97211112,-663.31904,312.51157)" />
  </g>
</svg>
